HIERARCHY
ROOT Hips
{
	OFFSET	0.00	0.00	0.00
	CHANNELS 6 Xposition Yposition Zposition Zrotation Xrotation Yrotation
	JOINT LeftUpLeg
	{
		OFFSET	 0.126116	-0.014019	-0.065224
		CHANNELS 3 Zrotation Xrotation Yrotation
		JOINT LeftLeg
		{
			OFFSET	 0.000000	 0.000000	 0.569914
			CHANNELS 3 Zrotation Xrotation Yrotation
			JOINT LeftFoot
			{
				OFFSET	 0.000000	 0.000000	 0.544423
				CHANNELS 3 Zrotation Xrotation Yrotation
				JOINT LeftToeBase
				{
					OFFSET	 0.000000	 0.000000	 0.207117
					CHANNELS 3 Zrotation Xrotation Yrotation
					End Site
					{
						OFFSET	 0.000000	 0.000000	 0.207117
					}
				}
			}
		}
	}
	JOINT RightUpLeg
	{
		OFFSET	-0.124023	-0.008373	-0.065224
		CHANNELS 3 Zrotation Xrotation Yrotation
		JOINT RightLeg
		{
			OFFSET	 0.000000	 0.000000	 0.570047
			CHANNELS 3 Zrotation Xrotation Yrotation
			JOINT RightFoot
			{
				OFFSET	 0.000000	 0.000000	 0.544354
				CHANNELS 3 Zrotation Xrotation Yrotation
				JOINT RightToeBase
				{
					OFFSET	 0.000000	 0.000000	 0.207540
					CHANNELS 3 Zrotation Xrotation Yrotation
					End Site
					{
						OFFSET	 0.000000	 0.000000	 0.207540
					}
				}
			}
		}
	}
	JOINT Spine
	{
		OFFSET	 0.000184	-0.007763	 0.117403
		CHANNELS 3 Zrotation Xrotation Yrotation
		JOINT Spine1
		{
			OFFSET	 0.000000	 0.000000	 0.137269
			CHANNELS 3 Zrotation Xrotation Yrotation
			JOINT Spine2
			{
				OFFSET	 0.000000	 0.000000	 0.156879
				CHANNELS 3 Zrotation Xrotation Yrotation
				JOINT LeftShoulder
				{
					OFFSET	 0.080501	-0.002496	 0.160144
					CHANNELS 3 Zrotation Xrotation Yrotation
					JOINT LeftArm
					{
						OFFSET	 0.000000	 0.000000	 0.164363
						CHANNELS 3 Zrotation Xrotation Yrotation
						JOINT LeftForeArm
						{
							OFFSET	 0.000000	 0.000000	 0.364576
							CHANNELS 3 Zrotation Xrotation Yrotation
							JOINT LeftHand
							{
								OFFSET	 0.000000	 0.000000	 0.360812
								CHANNELS 3 Zrotation Xrotation Yrotation
								JOINT LeftHandIndex1
								{
									OFFSET	 0.000000	 0.000000	 0.086006
									CHANNELS 3 Zrotation Xrotation Yrotation
									JOINT LeftHandIndex2
									{
										OFFSET	 0.000000	 0.000000	 0.047237
										CHANNELS 3 Zrotation Xrotation Yrotation
										JOINT LeftHandIndex3
										{
											OFFSET	-0.004284	-0.000551	 0.038165
											CHANNELS 3 Zrotation Xrotation Yrotation
											End Site
											{
												OFFSET	-0.004284	-0.000551	 0.038165
											}
										}
									}
								}
							}
						}
					}
				}
				JOINT Neck
				{
					OFFSET	 0.000000	 0.000000	 0.176489
					CHANNELS 3 Zrotation Xrotation Yrotation
					JOINT Head
					{
						OFFSET	 0.000000	-0.001747	 0.077940
						CHANNELS 3 Zrotation Xrotation Yrotation
						End Site
						{
							OFFSET	 0.000000	-0.001747	 0.077940
						}
					}
				}
				JOINT RightShoulder
				{
					OFFSET	-0.080363	 0.000306	 0.159706
					CHANNELS 3 Zrotation Xrotation Yrotation
					JOINT RightArm
					{
						OFFSET	 0.000000	 0.000000	 0.164196
						CHANNELS 3 Zrotation Xrotation Yrotation
						JOINT RightForeArm
						{
							OFFSET	 0.000000	 0.000000	 0.365611
							CHANNELS 3 Zrotation Xrotation Yrotation
							JOINT RightHand
							{
								OFFSET	 0.000000	 0.000000	 0.360648
								CHANNELS 3 Zrotation Xrotation Yrotation
								JOINT RightHandIndex1
								{
									OFFSET	 0.000000	 0.000000	 0.069977
									CHANNELS 3 Zrotation Xrotation Yrotation
									JOINT RightHandIndex2
									{
										OFFSET	 0.000000	 0.000000	 0.052305
										CHANNELS 3 Zrotation Xrotation Yrotation
										JOINT RightHandIndex3
										{
											OFFSET	 0.009002	-0.000782	 0.042196
											CHANNELS 3 Zrotation Xrotation Yrotation
											End Site
											{
												OFFSET	 0.009002	-0.000782	 0.042196
											}
										}
									}
								}
							}
						}
					}
				}
			}
		}
	}
}
MOTION
Frames:    5
Frame Time: 0.03333334
-0.639552	-0.128702	 1.279575	-159.911300	 9.916453	 9.579636	 14.252310	-18.309920	 163.748900	-8.850174	-30.721730	-3.536635	-54.507500	 75.801940	 52.797020	-2.385833	 28.452760	 0.000004	-1.048411	-51.958770	 175.132800	-25.452880	-57.220040	-12.312130	 30.850770	 36.781770	-36.997090	 2.384659	 28.388700	-0.000001	 62.459930	-22.036660	-14.770000	 45.495640	 28.859450	 0.343692	-4.020442	-4.708168	-5.563142	-91.776100	 78.527420	 179.999900	 9.006239	 6.760296	-49.757210	-5.482603	-0.064845	-0.388099	 2.693086	 9.187484	-3.372508	-4.131196	 21.524690	 0.986298	-5.167839	 0.733520	 3.519257	-1.378229	 35.397820	-2.634230	-13.976160	 16.371120	-7.899415	-25.094260	 3.568570	 5.264442	 89.782070	 78.203900	-180.000000	 6.989390	 57.276300	-10.296310	-4.070579	-5.728333	 18.191420	 98.758610	-12.440100	-6.641260	 5.715225	 19.176060	-3.692089	 5.027514	 0.245388	-9.378011	-2.350882	 35.473990	 5.254307
-0.637289	-0.127091	 1.280507	-161.237300	 10.014810	 9.779274	 17.255100	-18.688180	 163.818000	-7.933106	-30.359250	-3.031121	-65.983890	 78.623330	 62.789570	-2.385833	 28.452760	 0.000004	-3.149018	-52.028220	 173.767900	-19.543650	-57.298400	-7.289426	 40.112180	 45.663950	-40.052850	 2.384659	 28.388700	-0.000001	 63.104870	-23.031890	-15.809400	 45.838250	 30.920820	 0.469648	-4.059350	-5.333817	-5.540192	-91.776180	 78.527380	-180.000000	 8.480534	 7.003988	-49.722050	-4.352545	-0.072498	-0.411099	 3.536019	 9.595436	-3.667781	-4.131196	 21.524690	 0.986298	-5.167839	 0.733520	 3.519257	-1.378229	 35.397820	-2.634230	-14.011720	 16.468850	-7.702006	-25.040000	 3.293530	 4.776844	 89.782070	 78.203830	-180.000000	 7.203639	 57.606220	-9.928589	-6.063645	-6.086349	 17.241910	 96.814180	-10.008700	-3.790856	 5.715225	 19.176060	-3.692089	 5.027514	 0.245388	-9.378011	-2.350882	 35.473990	 5.254307
-0.632697	-0.122993	 1.280821	-162.409800	 10.950720	 8.995908	 19.571230	-19.006760	 165.079100	-5.797149	-29.570660	-1.899657	-100.572300	 82.651020	 94.447470	-2.385833	 28.452760	 0.000004	-0.407098	-52.853390	 175.930900	-17.726120	-56.933430	-5.728320	 47.343100	 49.758750	-44.400870	 2.384659	 28.388700	-0.000001	 64.649270	-23.594510	-14.281260	 45.655270	 31.119330	 1.444832	-3.961304	-5.129978	-6.529170	-91.776240	 78.527380	-180.000000	 8.130534	 7.018298	-49.890310	-3.417486	-0.079276	-0.458430	 4.283122	 9.939177	-3.955303	-4.131196	 21.524690	 0.986298	-5.167839	 0.733520	 3.519257	-1.378229	 35.397820	-2.634230	-13.774610	 17.114580	-7.906871	-24.894140	 3.209935	 5.532561	 89.782120	 78.203930	 180.000000	 6.323291	 57.653940	-8.155930	-7.879691	-6.137084	 15.865340	 93.688210	-9.227094	-1.843286	 5.715225	 19.176060	-3.692089	 5.027514	 0.245388	-9.378011	-2.350882	 35.473990	 5.254307
-0.624796	-0.117558	 1.280876	-161.663400	 10.610600	 6.493776	 19.578150	-16.438540	 167.129500	-3.846148	-27.517820	-0.875358	-151.496700	 82.611480	 143.441300	-2.385833	 28.452760	 0.000004	 7.064446	-51.471000	-177.376000	-17.398860	-56.873330	-5.449279	 56.926590	 51.325420	-52.064520	 2.384659	 28.388700	-0.000001	 65.417900	-22.919530	-10.618970	 45.507060	 31.822200	-1.053177	-3.663198	-6.045058	-5.725427	-91.776180	 78.527380	-180.000000	 8.351379	 6.341914	-49.994860	-2.842746	-0.083416	-0.527586	 4.904699	 10.194220	-4.216627	-4.131196	 21.524690	 0.986298	-5.167839	 0.733520	 3.519257	-1.378229	 35.397820	-2.634230	-13.166300	 17.120530	-8.598712	-24.875070	 3.844158	 7.743886	 89.782070	 78.203900	-180.000000	 4.043673	 57.335780	-3.715023	-8.551540	-4.644645	 11.829180	 91.906890	-8.694672	 3.122491	 5.715225	 19.176060	-3.692089	 5.027514	 0.245388	-9.378011	-2.350882	 35.473990	 5.254307
-0.614273	-0.108665	 1.280516	-161.860400	 10.123990	 7.740657	 23.958870	-16.459070	 165.099900	-7.973770	-26.323770	-2.678223	-50.978610	 84.838750	 46.282470	-2.385833	 28.452760	 0.000004	 8.308315	-49.232770	-178.170500	-17.088300	-55.213520	-5.088554	 60.194180	 53.225430	-53.795600	 2.384659	 28.388700	-0.000001	 64.964050	-22.067640	-11.991650	 45.396040	 30.506030	-0.814981	-3.341809	-5.112090	-5.419331	-91.776190	 78.527380	 180.000000	 9.483180	 4.969438	-50.567700	-2.504862	-0.086246	-0.646422	 5.214694	 10.248810	-4.460605	-4.131196	 21.524690	 0.986298	-5.167839	 0.733520	 3.519257	-1.378229	 35.397820	-2.634230	-12.684030	 17.306660	-9.349357	-24.946960	 3.570350	 8.998858	 89.782130	 78.203930	 180.000000	 1.604722	 57.744570	-3.426732	-4.967044	-5.434818	 16.701680	 93.073620	-20.144300	 8.845885	 5.715225	 19.176060	-3.692089	 5.027514	 0.245388	-9.378011	-2.350882	 35.473990	 5.254307
